<svg id="visual" viewBox="0 0 940 300" width="940" height="300" xmlns="http://www.w3.org/2000/svg" xmlns:xlink="http://www.w3.org/1999/xlink" version="1.1"><path d="M0 76L9.2 78.5C18.3 81 36.7 86 55.2 84.5C73.7 83 92.3 75 110.8 71.2C129.3 67.3 147.7 67.7 166 66.5C184.3 65.3 202.7 62.7 221 64C239.3 65.3 257.7 70.7 276.2 74.2C294.7 77.7 313.3 79.3 331.8 76.5C350.3 73.7 368.7 66.3 387 68.2C405.3 70 423.7 81 442.2 84C460.7 87 479.3 82 497.8 78.7C516.3 75.3 534.7 73.7 553 76.2C571.3 78.7 589.7 85.3 608.2 83.3C626.7 81.3 645.3 70.7 663.8 70.7C682.3 70.7 700.7 81.3 719 85.8C737.3 90.3 755.7 88.7 774 89.5C792.3 90.3 810.7 93.7 829.2 92.8C847.7 92 866.3 87 884.8 83.5C903.3 80 921.7 78 930.8 77L940 76L940 0L930.8 0C921.7 0 903.3 0 884.8 0C866.3 0 847.7 0 829.2 0C810.7 0 792.3 0 774 0C755.7 0 737.3 0 719 0C700.7 0 682.3 0 663.8 0C645.3 0 626.7 0 608.2 0C589.7 0 571.3 0 553 0C534.7 0 516.3 0 497.8 0C479.3 0 460.7 0 442.2 0C423.7 0 405.3 0 387 0C368.7 0 350.3 0 331.8 0C313.3 0 294.7 0 276.2 0C257.7 0 239.3 0 221 0C202.7 0 184.3 0 166 0C147.7 0 129.3 0 110.8 0C92.3 0 73.7 0 55.2 0C36.7 0 18.3 0 9.2 0L0 0Z" fill="#715df2"></path><path d="M0 53L9.2 53.7C18.3 54.3 36.7 55.7 55.2 57.7C73.7 59.7 92.3 62.3 110.8 62.3C129.3 62.3 147.7 59.7 166 60.7C184.3 61.7 202.7 66.3 221 69.2C239.3 72 257.7 73 276.2 70C294.7 67 313.3 60 331.8 56.2C350.3 52.3 368.7 51.7 387 52.8C405.3 54 423.7 57 442.2 57.7C460.7 58.3 479.3 56.7 497.8 59.3C516.3 62 534.7 69 553 68.5C571.3 68 589.7 60 608.2 57.7C626.7 55.3 645.3 58.7 663.8 58.7C682.3 58.7 700.7 55.3 719 53.5C737.3 51.7 755.7 51.3 774 52.5C792.3 53.7 810.7 56.3 829.2 60.5C847.7 64.7 866.3 70.3 884.8 70C903.3 69.7 921.7 63.3 930.8 60.2L940 57L940 0L930.8 0C921.7 0 903.3 0 884.8 0C866.3 0 847.7 0 829.2 0C810.7 0 792.3 0 774 0C755.7 0 737.3 0 719 0C700.7 0 682.3 0 663.8 0C645.3 0 626.7 0 608.2 0C589.7 0 571.3 0 553 0C534.7 0 516.3 0 497.8 0C479.3 0 460.7 0 442.2 0C423.7 0 405.3 0 387 0C368.7 0 350.3 0 331.8 0C313.3 0 294.7 0 276.2 0C257.7 0 239.3 0 221 0C202.7 0 184.3 0 166 0C147.7 0 129.3 0 110.8 0C92.3 0 73.7 0 55.2 0C36.7 0 18.3 0 9.2 0L0 0Z" fill="#684ade"></path><path d="M0 40L9.2 42C18.3 44 36.7 48 55.2 51.8C73.7 55.7 92.3 59.3 110.8 58.7C129.3 58 147.7 53 166 50.3C184.3 47.7 202.7 47.3 221 48C239.3 48.7 257.7 50.3 276.2 51C294.7 51.7 313.3 51.3 331.8 52C350.3 52.7 368.7 54.3 387 54.5C405.3 54.7 423.7 53.3 442.2 53.5C460.7 53.7 479.3 55.3 497.8 57.3C516.3 59.3 534.7 61.7 553 58C571.3 54.3 589.7 44.7 608.2 39.8C626.7 35 645.3 35 663.8 36.3C682.3 37.7 700.7 40.3 719 43.3C737.3 46.3 755.7 49.7 774 51C792.3 52.3 810.7 51.7 829.2 53.2C847.7 54.7 866.3 58.3 884.8 56.5C903.3 54.7 921.7 47.3 930.8 43.7L940 40L940 0L930.8 0C921.7 0 903.3 0 884.8 0C866.3 0 847.7 0 829.2 0C810.7 0 792.3 0 774 0C755.7 0 737.3 0 719 0C700.7 0 682.3 0 663.8 0C645.3 0 626.7 0 608.2 0C589.7 0 571.3 0 553 0C534.7 0 516.3 0 497.8 0C479.3 0 460.7 0 442.2 0C423.7 0 405.3 0 387 0C368.7 0 350.3 0 331.8 0C313.3 0 294.7 0 276.2 0C257.7 0 239.3 0 221 0C202.7 0 184.3 0 166 0C147.7 0 129.3 0 110.8 0C92.3 0 73.7 0 55.2 0C36.7 0 18.3 0 9.2 0L0 0Z" fill="#5e36ca"></path><path d="M0 34L9.2 34.8C18.3 35.7 36.7 37.3 55.2 35.8C73.7 34.3 92.3 29.7 110.8 27.3C129.3 25 147.7 25 166 28C184.3 31 202.7 37 221 38.7C239.3 40.3 257.7 37.7 276.2 35.7C294.7 33.7 313.3 32.3 331.8 30.3C350.3 28.3 368.7 25.7 387 27.2C405.3 28.7 423.7 34.3 442.2 34.7C460.7 35 479.3 30 497.8 29.7C516.3 29.3 534.7 33.7 553 36.3C571.3 39 589.7 40 608.2 40C626.7 40 645.3 39 663.8 36.7C682.3 34.3 700.7 30.7 719 29.2C737.3 27.7 755.7 28.3 774 27.8C792.3 27.3 810.7 25.7 829.2 25.3C847.7 25 866.3 26 884.8 26.3C903.3 26.7 921.7 26.3 930.8 26.2L940 26L940 0L930.8 0C921.7 0 903.3 0 884.8 0C866.3 0 847.7 0 829.2 0C810.7 0 792.3 0 774 0C755.7 0 737.3 0 719 0C700.7 0 682.3 0 663.8 0C645.3 0 626.7 0 608.2 0C589.7 0 571.3 0 553 0C534.7 0 516.3 0 497.8 0C479.3 0 460.7 0 442.2 0C423.7 0 405.3 0 387 0C368.7 0 350.3 0 331.8 0C313.3 0 294.7 0 276.2 0C257.7 0 239.3 0 221 0C202.7 0 184.3 0 166 0C147.7 0 129.3 0 110.8 0C92.3 0 73.7 0 55.2 0C36.7 0 18.3 0 9.2 0L0 0Z" fill="#5420b6"></path><path d="M0 22L9.2 20.8C18.3 19.7 36.7 17.3 55.2 17.5C73.7 17.7 92.3 20.3 110.8 21C129.3 21.7 147.7 20.3 166 18.5C184.3 16.7 202.7 14.3 221 13.8C239.3 13.3 257.7 14.7 276.2 17C294.7 19.3 313.3 22.7 331.8 24.5C350.3 26.3 368.7 26.7 387 26.3C405.3 26 423.7 25 442.2 23.5C460.7 22 479.3 20 497.8 19C516.3 18 534.7 18 553 19.2C571.3 20.3 589.7 22.7 608.2 23C626.7 23.3 645.3 21.7 663.8 19.8C682.3 18 700.7 16 719 15.3C737.3 14.7 755.7 15.3 774 14.7C792.3 14 810.7 12 829.2 13.2C847.7 14.3 866.3 18.7 884.8 19C903.3 19.3 921.7 15.7 930.8 13.8L940 12L940 0L930.8 0C921.7 0 903.3 0 884.8 0C866.3 0 847.7 0 829.2 0C810.7 0 792.3 0 774 0C755.7 0 737.3 0 719 0C700.7 0 682.3 0 663.8 0C645.3 0 626.7 0 608.2 0C589.7 0 571.3 0 553 0C534.7 0 516.3 0 497.8 0C479.3 0 460.7 0 442.2 0C423.7 0 405.3 0 387 0C368.7 0 350.3 0 331.8 0C313.3 0 294.7 0 276.2 0C257.7 0 239.3 0 221 0C202.7 0 184.3 0 166 0C147.7 0 129.3 0 110.8 0C92.3 0 73.7 0 55.2 0C36.7 0 18.3 0 9.2 0L0 0Z" fill="#4a00a2"></path></svg>