<svg id="visual" viewBox="0 0 940 300" width="940" height="300" xmlns="http://www.w3.org/2000/svg" xmlns:xlink="http://www.w3.org/1999/xlink" version="1.1"><path d="M0 209L9.2 208.7C18.3 208.3 36.7 207.7 55.2 208.8C73.7 210 92.3 213 110.8 217.7C129.3 222.3 147.7 228.7 166 230.3C184.3 232 202.7 229 221 228C239.3 227 257.7 228 276.2 230.2C294.7 232.3 313.3 235.7 331.8 231.2C350.3 226.7 368.7 214.3 387 210.3C405.3 206.3 423.7 210.7 442.2 213.7C460.7 216.7 479.3 218.3 497.8 220.3C516.3 222.3 534.7 224.7 553 222.7C571.3 220.7 589.7 214.3 608.2 210.5C626.7 206.7 645.3 205.3 663.8 204.5C682.3 203.7 700.7 203.3 719 208.8C737.3 214.3 755.7 225.7 774 229C792.3 232.3 810.7 227.7 829.2 222C847.7 216.3 866.3 209.7 884.8 207C903.3 204.3 921.7 205.7 930.8 206.3L940 207L940 301L930.8 301C921.7 301 903.3 301 884.8 301C866.3 301 847.7 301 829.2 301C810.7 301 792.3 301 774 301C755.7 301 737.3 301 719 301C700.7 301 682.3 301 663.8 301C645.3 301 626.7 301 608.2 301C589.7 301 571.3 301 553 301C534.7 301 516.3 301 497.8 301C479.3 301 460.7 301 442.2 301C423.7 301 405.3 301 387 301C368.7 301 350.3 301 331.8 301C313.3 301 294.7 301 276.2 301C257.7 301 239.3 301 221 301C202.7 301 184.3 301 166 301C147.7 301 129.3 301 110.8 301C92.3 301 73.7 301 55.2 301C36.7 301 18.3 301 9.2 301L0 301Z" fill="#715df2"></path><path d="M0 220L9.2 224.7C18.3 229.3 36.7 238.7 55.2 243.5C73.7 248.3 92.3 248.7 110.8 243.8C129.3 239 147.7 229 166 225C184.3 221 202.7 223 221 227.5C239.3 232 257.7 239 276.2 238C294.7 237 313.3 228 331.8 224C350.3 220 368.7 221 387 226C405.3 231 423.7 240 442.2 241.5C460.7 243 479.3 237 497.8 232.8C516.3 228.7 534.7 226.3 553 224.2C571.3 222 589.7 220 608.2 220.2C626.7 220.3 645.3 222.7 663.8 224.7C682.3 226.7 700.7 228.3 719 229.5C737.3 230.7 755.7 231.3 774 230.3C792.3 229.3 810.7 226.7 829.2 225C847.7 223.3 866.3 222.7 884.8 221.5C903.3 220.3 921.7 218.7 930.8 217.8L940 217L940 301L930.8 301C921.7 301 903.3 301 884.8 301C866.3 301 847.7 301 829.2 301C810.7 301 792.3 301 774 301C755.7 301 737.3 301 719 301C700.7 301 682.3 301 663.8 301C645.3 301 626.7 301 608.2 301C589.7 301 571.3 301 553 301C534.7 301 516.3 301 497.8 301C479.3 301 460.7 301 442.2 301C423.7 301 405.3 301 387 301C368.7 301 350.3 301 331.8 301C313.3 301 294.7 301 276.2 301C257.7 301 239.3 301 221 301C202.7 301 184.3 301 166 301C147.7 301 129.3 301 110.8 301C92.3 301 73.7 301 55.2 301C36.7 301 18.3 301 9.2 301L0 301Z" fill="#684ade"></path><path d="M0 236L9.2 240.5C18.3 245 36.7 254 55.2 256.8C73.7 259.7 92.3 256.3 110.8 256.3C129.3 256.3 147.7 259.7 166 257.7C184.3 255.7 202.7 248.3 221 247.3C239.3 246.3 257.7 251.7 276.2 255C294.7 258.3 313.3 259.7 331.8 256.2C350.3 252.7 368.7 244.3 387 240.3C405.3 236.3 423.7 236.7 442.2 237.3C460.7 238 479.3 239 497.8 240.3C516.3 241.7 534.7 243.3 553 245.7C571.3 248 589.7 251 608.2 251.7C626.7 252.3 645.3 250.7 663.8 249C682.3 247.3 700.7 245.7 719 244.5C737.3 243.3 755.7 242.7 774 241.2C792.3 239.7 810.7 237.3 829.2 237.3C847.7 237.3 866.3 239.7 884.8 244.5C903.3 249.3 921.7 256.7 930.8 260.3L940 264L940 301L930.8 301C921.7 301 903.3 301 884.8 301C866.3 301 847.7 301 829.2 301C810.7 301 792.3 301 774 301C755.7 301 737.3 301 719 301C700.7 301 682.3 301 663.8 301C645.3 301 626.7 301 608.2 301C589.7 301 571.3 301 553 301C534.7 301 516.3 301 497.8 301C479.3 301 460.7 301 442.2 301C423.7 301 405.3 301 387 301C368.7 301 350.3 301 331.8 301C313.3 301 294.7 301 276.2 301C257.7 301 239.3 301 221 301C202.7 301 184.3 301 166 301C147.7 301 129.3 301 110.8 301C92.3 301 73.7 301 55.2 301C36.7 301 18.3 301 9.2 301L0 301Z" fill="#5e36ca"></path><path d="M0 255L9.2 257.3C18.3 259.7 36.7 264.3 55.2 264.2C73.7 264 92.3 259 110.8 256.8C129.3 254.7 147.7 255.3 166 257C184.3 258.7 202.7 261.3 221 262.2C239.3 263 257.7 262 276.2 260C294.7 258 313.3 255 331.8 256.3C350.3 257.7 368.7 263.3 387 263.8C405.3 264.3 423.7 259.7 442.2 257.7C460.7 255.7 479.3 256.3 497.8 257.2C516.3 258 534.7 259 553 260.8C571.3 262.7 589.7 265.3 608.2 266.7C626.7 268 645.3 268 663.8 267.2C682.3 266.3 700.7 264.7 719 262.2C737.3 259.7 755.7 256.3 774 258C792.3 259.7 810.7 266.3 829.2 267.5C847.7 268.7 866.3 264.3 884.8 263C903.3 261.7 921.7 263.3 930.8 264.2L940 265L940 301L930.8 301C921.7 301 903.3 301 884.8 301C866.3 301 847.7 301 829.2 301C810.7 301 792.3 301 774 301C755.7 301 737.3 301 719 301C700.7 301 682.3 301 663.8 301C645.3 301 626.7 301 608.2 301C589.7 301 571.3 301 553 301C534.7 301 516.3 301 497.8 301C479.3 301 460.7 301 442.2 301C423.7 301 405.3 301 387 301C368.7 301 350.3 301 331.8 301C313.3 301 294.7 301 276.2 301C257.7 301 239.3 301 221 301C202.7 301 184.3 301 166 301C147.7 301 129.3 301 110.8 301C92.3 301 73.7 301 55.2 301C36.7 301 18.3 301 9.2 301L0 301Z" fill="#5420b6"></path><path d="M0 284L9.2 282.3C18.3 280.7 36.7 277.3 55.2 277.8C73.7 278.3 92.3 282.7 110.8 284.2C129.3 285.7 147.7 284.3 166 284.3C184.3 284.3 202.7 285.7 221 286.5C239.3 287.3 257.7 287.7 276.2 286C294.7 284.3 313.3 280.7 331.8 277.8C350.3 275 368.7 273 387 272C405.3 271 423.7 271 442.2 271.8C460.7 272.7 479.3 274.3 497.8 275.5C516.3 276.7 534.7 277.3 553 278.5C571.3 279.7 589.7 281.3 608.2 281.7C626.7 282 645.3 281 663.8 280C682.3 279 700.7 278 719 278.2C737.3 278.3 755.7 279.7 774 281.2C792.3 282.7 810.7 284.3 829.2 284C847.7 283.7 866.3 281.3 884.8 280.8C903.3 280.3 921.7 281.7 930.8 282.3L940 283L940 301L930.8 301C921.7 301 903.3 301 884.8 301C866.3 301 847.7 301 829.2 301C810.7 301 792.3 301 774 301C755.7 301 737.3 301 719 301C700.7 301 682.3 301 663.8 301C645.3 301 626.7 301 608.2 301C589.7 301 571.3 301 553 301C534.7 301 516.3 301 497.8 301C479.3 301 460.7 301 442.2 301C423.7 301 405.3 301 387 301C368.7 301 350.3 301 331.8 301C313.3 301 294.7 301 276.2 301C257.7 301 239.3 301 221 301C202.7 301 184.3 301 166 301C147.7 301 129.3 301 110.8 301C92.3 301 73.7 301 55.2 301C36.7 301 18.3 301 9.2 301L0 301Z" fill="#4a00a2"></path></svg>