<svg id="visual" viewBox="0 0 940 300" width="940" height="300" xmlns="http://www.w3.org/2000/svg" xmlns:xlink="http://www.w3.org/1999/xlink" version="1.1"><path d="M0 117L14.2 115.2C28.3 113.3 56.7 109.7 85.2 109C113.7 108.3 142.3 110.7 170.8 105.2C199.3 99.7 227.7 86.3 256.2 75.3C284.7 64.3 313.3 55.7 341.8 56.2C370.3 56.7 398.7 66.3 427.2 74.8C455.7 83.3 484.3 90.7 512.8 92.5C541.3 94.3 569.7 90.7 598.2 90C626.7 89.3 655.3 91.7 683.8 86.2C712.3 80.7 740.7 67.3 769.2 69C797.7 70.7 826.3 87.3 854.8 89C883.3 90.7 911.7 77.3 925.8 70.7L940 64L940 301L925.8 301C911.7 301 883.3 301 854.8 301C826.3 301 797.7 301 769.2 301C740.7 301 712.3 301 683.8 301C655.3 301 626.7 301 598.2 301C569.7 301 541.3 301 512.8 301C484.3 301 455.7 301 427.2 301C398.7 301 370.3 301 341.8 301C313.3 301 284.7 301 256.2 301C227.7 301 199.3 301 170.8 301C142.3 301 113.7 301 85.2 301C56.7 301 28.3 301 14.2 301L0 301Z" fill="#6600ff"></path><path d="M0 140L14.2 137.5C28.3 135 56.7 130 85.2 125C113.7 120 142.3 115 170.8 106.7C199.3 98.3 227.7 86.7 256.2 86.3C284.7 86 313.3 97 341.8 99.2C370.3 101.3 398.7 94.7 427.2 99.7C455.7 104.7 484.3 121.3 512.8 126.8C541.3 132.3 569.7 126.7 598.2 119.2C626.7 111.7 655.3 102.3 683.8 102.7C712.3 103 740.7 113 769.2 114.5C797.7 116 826.3 109 854.8 107.3C883.3 105.7 911.7 109.3 925.8 111.2L940 113L940 301L925.8 301C911.7 301 883.3 301 854.8 301C826.3 301 797.7 301 769.2 301C740.7 301 712.3 301 683.8 301C655.3 301 626.7 301 598.2 301C569.7 301 541.3 301 512.8 301C484.3 301 455.7 301 427.2 301C398.7 301 370.3 301 341.8 301C313.3 301 284.7 301 256.2 301C227.7 301 199.3 301 170.8 301C142.3 301 113.7 301 85.2 301C56.7 301 28.3 301 14.2 301L0 301Z" fill="#6617fe"></path><path d="M0 121L14.2 122.3C28.3 123.7 56.7 126.3 85.2 126.3C113.7 126.3 142.3 123.7 170.8 116.8C199.3 110 227.7 99 256.2 94C284.7 89 313.3 90 341.8 99C370.3 108 398.7 125 427.2 124.2C455.7 123.3 484.3 104.7 512.8 95C541.3 85.3 569.7 84.7 598.2 94.2C626.7 103.7 655.3 123.3 683.8 135.3C712.3 147.3 740.7 151.7 769.2 146C797.7 140.3 826.3 124.7 854.8 122.3C883.3 120 911.7 131 925.8 136.5L940 142L940 301L925.8 301C911.7 301 883.3 301 854.8 301C826.3 301 797.7 301 769.2 301C740.7 301 712.3 301 683.8 301C655.3 301 626.7 301 598.2 301C569.7 301 541.3 301 512.8 301C484.3 301 455.7 301 427.2 301C398.7 301 370.3 301 341.8 301C313.3 301 284.7 301 256.2 301C227.7 301 199.3 301 170.8 301C142.3 301 113.7 301 85.2 301C56.7 301 28.3 301 14.2 301L0 301Z" fill="#6624fe"></path><path d="M0 118L14.2 126C28.3 134 56.7 150 85.2 151.8C113.7 153.7 142.3 141.3 170.8 131C199.3 120.7 227.7 112.3 256.2 114.5C284.7 116.7 313.3 129.3 341.8 130C370.3 130.7 398.7 119.3 427.2 119C455.7 118.7 484.3 129.3 512.8 132.5C541.3 135.7 569.7 131.3 598.2 136.7C626.7 142 655.3 157 683.8 160.8C712.3 164.7 740.7 157.3 769.2 154C797.7 150.7 826.3 151.3 854.8 146.8C883.3 142.3 911.7 132.7 925.8 127.8L940 123L940 301L925.8 301C911.7 301 883.3 301 854.8 301C826.3 301 797.7 301 769.2 301C740.7 301 712.3 301 683.8 301C655.3 301 626.7 301 598.2 301C569.7 301 541.3 301 512.8 301C484.3 301 455.7 301 427.2 301C398.7 301 370.3 301 341.8 301C313.3 301 284.7 301 256.2 301C227.7 301 199.3 301 170.8 301C142.3 301 113.7 301 85.2 301C56.7 301 28.3 301 14.2 301L0 301Z" fill="#672efd"></path><path d="M0 163L14.2 162.8C28.3 162.7 56.7 162.3 85.2 166.2C113.7 170 142.3 178 170.8 180.7C199.3 183.3 227.7 180.7 256.2 171C284.7 161.3 313.3 144.7 341.8 144.7C370.3 144.7 398.7 161.3 427.2 165.3C455.7 169.3 484.3 160.7 512.8 159C541.3 157.3 569.7 162.7 598.2 161.2C626.7 159.7 655.3 151.3 683.8 153.8C712.3 156.3 740.7 169.7 769.2 168.5C797.7 167.3 826.3 151.7 854.8 150C883.3 148.3 911.7 160.7 925.8 166.8L940 173L940 301L925.8 301C911.7 301 883.3 301 854.8 301C826.3 301 797.7 301 769.2 301C740.7 301 712.3 301 683.8 301C655.3 301 626.7 301 598.2 301C569.7 301 541.3 301 512.8 301C484.3 301 455.7 301 427.2 301C398.7 301 370.3 301 341.8 301C313.3 301 284.7 301 256.2 301C227.7 301 199.3 301 170.8 301C142.3 301 113.7 301 85.2 301C56.7 301 28.3 301 14.2 301L0 301Z" fill="#6836fc"></path><path d="M0 151L14.2 149.8C28.3 148.7 56.7 146.3 85.2 147.8C113.7 149.3 142.3 154.7 170.8 161.5C199.3 168.3 227.7 176.7 256.2 177C284.7 177.3 313.3 169.7 341.8 171.3C370.3 173 398.7 184 427.2 189.5C455.7 195 484.3 195 512.8 186.7C541.3 178.3 569.7 161.7 598.2 158C626.7 154.3 655.3 163.7 683.8 171.7C712.3 179.7 740.7 186.3 769.2 189.3C797.7 192.3 826.3 191.7 854.8 187.3C883.3 183 911.7 175 925.8 171L940 167L940 301L925.8 301C911.7 301 883.3 301 854.8 301C826.3 301 797.7 301 769.2 301C740.7 301 712.3 301 683.8 301C655.3 301 626.7 301 598.2 301C569.7 301 541.3 301 512.8 301C484.3 301 455.7 301 427.2 301C398.7 301 370.3 301 341.8 301C313.3 301 284.7 301 256.2 301C227.7 301 199.3 301 170.8 301C142.3 301 113.7 301 85.2 301C56.7 301 28.3 301 14.2 301L0 301Z" fill="#683dfb"></path><path d="M0 198L14.2 195.2C28.3 192.3 56.7 186.7 85.2 183.7C113.7 180.7 142.3 180.3 170.8 185.2C199.3 190 227.7 200 256.2 200.7C284.7 201.3 313.3 192.7 341.8 190.3C370.3 188 398.7 192 427.2 195.3C455.7 198.7 484.3 201.3 512.8 196.2C541.3 191 569.7 178 598.2 179.8C626.7 181.7 655.3 198.3 683.8 203.2C712.3 208 740.7 201 769.2 193.3C797.7 185.7 826.3 177.3 854.8 178.7C883.3 180 911.7 191 925.8 196.5L940 202L940 301L925.8 301C911.7 301 883.3 301 854.8 301C826.3 301 797.7 301 769.2 301C740.7 301 712.3 301 683.8 301C655.3 301 626.7 301 598.2 301C569.7 301 541.3 301 512.8 301C484.3 301 455.7 301 427.2 301C398.7 301 370.3 301 341.8 301C313.3 301 284.7 301 256.2 301C227.7 301 199.3 301 170.8 301C142.3 301 113.7 301 85.2 301C56.7 301 28.3 301 14.2 301L0 301Z" fill="#6a43f9"></path><path d="M0 212L14.2 214.3C28.3 216.7 56.7 221.3 85.2 219.7C113.7 218 142.3 210 170.8 205.5C199.3 201 227.7 200 256.2 204.3C284.7 208.7 313.3 218.3 341.8 216.7C370.3 215 398.7 202 427.2 196.5C455.7 191 484.3 193 512.8 194.7C541.3 196.3 569.7 197.7 598.2 201.5C626.7 205.3 655.3 211.7 683.8 211.5C712.3 211.3 740.7 204.7 769.2 204.7C797.7 204.7 826.3 211.3 854.8 216.2C883.3 221 911.7 224 925.8 225.5L940 227L940 301L925.8 301C911.7 301 883.3 301 854.8 301C826.3 301 797.7 301 769.2 301C740.7 301 712.3 301 683.8 301C655.3 301 626.7 301 598.2 301C569.7 301 541.3 301 512.8 301C484.3 301 455.7 301 427.2 301C398.7 301 370.3 301 341.8 301C313.3 301 284.7 301 256.2 301C227.7 301 199.3 301 170.8 301C142.3 301 113.7 301 85.2 301C56.7 301 28.3 301 14.2 301L0 301Z" fill="#6b49f8"></path><path d="M0 223L14.2 225.2C28.3 227.3 56.7 231.7 85.2 233.7C113.7 235.7 142.3 235.3 170.8 231.8C199.3 228.3 227.7 221.7 256.2 220.8C284.7 220 313.3 225 341.8 224.8C370.3 224.7 398.7 219.3 427.2 216.7C455.7 214 484.3 214 512.8 215.5C541.3 217 569.7 220 598.2 219.5C626.7 219 655.3 215 683.8 214.5C712.3 214 740.7 217 769.2 219.5C797.7 222 826.3 224 854.8 224C883.3 224 911.7 222 925.8 221L940 220L940 301L925.8 301C911.7 301 883.3 301 854.8 301C826.3 301 797.7 301 769.2 301C740.7 301 712.3 301 683.8 301C655.3 301 626.7 301 598.2 301C569.7 301 541.3 301 512.8 301C484.3 301 455.7 301 427.2 301C398.7 301 370.3 301 341.8 301C313.3 301 284.7 301 256.2 301C227.7 301 199.3 301 170.8 301C142.3 301 113.7 301 85.2 301C56.7 301 28.3 301 14.2 301L0 301Z" fill="#6c4ef7"></path><path d="M0 245L14.2 242.8C28.3 240.7 56.7 236.3 85.2 238C113.7 239.7 142.3 247.3 170.8 247.5C199.3 247.7 227.7 240.3 256.2 237.3C284.7 234.3 313.3 235.7 341.8 235.7C370.3 235.7 398.7 234.3 427.2 233C455.7 231.7 484.3 230.3 512.8 231.8C541.3 233.3 569.7 237.7 598.2 239C626.7 240.3 655.3 238.7 683.8 239.5C712.3 240.3 740.7 243.7 769.2 246.2C797.7 248.7 826.3 250.3 854.8 251.2C883.3 252 911.7 252 925.8 252L940 252L940 301L925.8 301C911.7 301 883.3 301 854.8 301C826.3 301 797.7 301 769.2 301C740.7 301 712.3 301 683.8 301C655.3 301 626.7 301 598.2 301C569.7 301 541.3 301 512.8 301C484.3 301 455.7 301 427.2 301C398.7 301 370.3 301 341.8 301C313.3 301 284.7 301 256.2 301C227.7 301 199.3 301 170.8 301C142.3 301 113.7 301 85.2 301C56.7 301 28.3 301 14.2 301L0 301Z" fill="#6e53f5"></path><path d="M0 257L14.2 256.5C28.3 256 56.7 255 85.2 253.3C113.7 251.7 142.3 249.3 170.8 252C199.3 254.7 227.7 262.3 256.2 262.3C284.7 262.3 313.3 254.7 341.8 254.2C370.3 253.7 398.7 260.3 427.2 260.5C455.7 260.7 484.3 254.3 512.8 254.2C541.3 254 569.7 260 598.2 259.8C626.7 259.7 655.3 253.3 683.8 252.5C712.3 251.7 740.7 256.3 769.2 257C797.7 257.7 826.3 254.3 854.8 253.2C883.3 252 911.7 253 925.8 253.5L940 254L940 301L925.8 301C911.7 301 883.3 301 854.8 301C826.3 301 797.7 301 769.2 301C740.7 301 712.3 301 683.8 301C655.3 301 626.7 301 598.2 301C569.7 301 541.3 301 512.8 301C484.3 301 455.7 301 427.2 301C398.7 301 370.3 301 341.8 301C313.3 301 284.7 301 256.2 301C227.7 301 199.3 301 170.8 301C142.3 301 113.7 301 85.2 301C56.7 301 28.3 301 14.2 301L0 301Z" fill="#6f58f4"></path><path d="M0 271L14.2 270.7C28.3 270.3 56.7 269.7 85.2 269.5C113.7 269.3 142.3 269.7 170.8 270.2C199.3 270.7 227.7 271.3 256.2 271.3C284.7 271.3 313.3 270.7 341.8 270.3C370.3 270 398.7 270 427.2 272.5C455.7 275 484.3 280 512.8 281C541.3 282 569.7 279 598.2 278.7C626.7 278.3 655.3 280.7 683.8 279.5C712.3 278.3 740.7 273.7 769.2 271.7C797.7 269.7 826.3 270.3 854.8 271.5C883.3 272.7 911.7 274.3 925.8 275.2L940 276L940 301L925.8 301C911.7 301 883.3 301 854.8 301C826.3 301 797.7 301 769.2 301C740.7 301 712.3 301 683.8 301C655.3 301 626.7 301 598.2 301C569.7 301 541.3 301 512.8 301C484.3 301 455.7 301 427.2 301C398.7 301 370.3 301 341.8 301C313.3 301 284.7 301 256.2 301C227.7 301 199.3 301 170.8 301C142.3 301 113.7 301 85.2 301C56.7 301 28.3 301 14.2 301L0 301Z" fill="#715df2"></path></svg>